<svg xmlns="http://www.w3.org/2000/svg" xmlns:xlink="http://www.w3.org/1999/xlink" width="23" height="22" viewBox="0 0 23 22">
    <defs>
        <path id="f2225lfc1a" d="M0 0H21.437V21.437H0z"/>
    </defs>
    <g fill="none" fill-rule="evenodd">
        <g>
            <g transform="translate(-44 -134) translate(44.1 134)">
                <mask id="qlpekwj0ib" fill="#fff">
                    <use xlink:href="#f2225lfc1a"/>
                </mask>
                <path fill="#57627b" d="M7.146 11.612l3.572-3.573 3.573 3.573h-2.277v2.68h-2.59v-2.68H7.145zm3.572-8.04c3.349 0 6.159 2.304 6.934 5.412 2.143.328 3.785 2.18 3.785 4.414 0 2.467-2 4.466-4.466 4.466H5.359c-2.96 0-5.359-2.4-5.359-5.36 0-2.663 1.943-4.872 4.489-5.288 1.225-2.175 3.556-3.643 6.23-3.643 2.231 0 2.231 0 0 0zM4.777 8.98l.847-.138.421-.748c.921-1.636 2.67-2.734 4.673-2.734 2.51 0 4.62 1.726 5.2 4.057l.288 1.154 1.176.18c1.284.196 2.268 1.309 2.268 2.648 0 1.48-1.2 2.68-2.68 2.68H5.36c-1.974 0-3.574-1.6-3.574-3.573 0-1.774 1.295-3.249 2.99-3.526z" mask="url(#qlpekwj0ib)"/>
            </g>
        </g>
    </g>
</svg>
